<svg width="174" height="44" viewBox="0 0 174 44" fill="none" xmlns="http://www.w3.org/2000/svg">
<path d="M63.7279 22.3431L68.4265 11H73.4338V28.3235H69.5662V16.8382L64.75 28.3235H62.6618L57.8676 16.7672V28.3235H54V11H59.0539L63.7279 22.3431Z" fill="white"/>
<path d="M89.0245 21.2743C89.0245 21.876 88.9932 22.406 88.9313 22.8649H79.4632C79.5723 23.8453 79.8682 24.5537 80.3505 24.9899C80.8339 25.425 81.4791 25.6419 82.2867 25.6419C83.0772 25.6419 83.6623 25.4998 84.0416 25.2154C84.4221 24.9299 84.6991 24.5653 84.8725 24.1223H88.8112C88.685 24.9134 88.3731 25.6535 87.875 26.3429C87.3762 27.031 86.6838 27.5849 85.7965 28.0047C84.9105 28.4225 83.8039 28.6321 82.4755 28.6321C81.0833 28.6321 79.8848 28.3674 78.8799 27.838C77.8762 27.3073 77.1054 26.5672 76.5661 25.6174C76.0281 24.6683 75.7598 23.5531 75.7598 22.2718V21.7963C75.7598 20.5157 76.0281 19.3968 76.5661 18.4409C77.1054 17.4838 77.8805 16.7442 78.8921 16.2228C79.905 15.7001 81.1231 15.4385 82.5465 15.4385C83.8909 15.4385 85.0453 15.6879 86.0098 16.186C86.9755 16.6848 87.7187 17.3723 88.2402 18.2498C88.7628 19.1272 89.0245 20.1358 89.0245 21.2743ZM82.4509 18.3331C81.6286 18.3331 80.9644 18.5267 80.4583 18.914C79.9516 19.3012 79.6274 19.9225 79.4853 20.7767H85.2279C85.1329 19.9385 84.848 19.3221 84.3725 18.9262C83.8982 18.531 83.2579 18.3331 82.4509 18.3331Z" fill="white"/>
<path d="M98.1624 15.4385C98.5252 15.4385 98.8371 15.4624 99.0987 15.5096C99.3597 15.5573 99.5699 15.6045 99.7286 15.6517V19.6149C99.4915 19.5825 99.2225 19.5549 98.9222 19.5316C98.6214 19.5071 98.2807 19.4948 97.9002 19.4948C96.9357 19.4948 96.236 19.7804 95.7997 20.3502C95.3647 20.9189 95.1477 21.8919 95.1477 23.2694V28.3233H91.3267V15.7473H93.2262L94.3879 19.5439C94.7047 18.0408 95.2072 16.9814 95.8953 16.3649C96.5828 15.7473 97.3389 15.4385 98.1624 15.4385Z" fill="white"/>
<path d="M100.891 22.2718V21.7963C100.891 20.5157 101.159 19.3968 101.697 18.4409C102.236 17.4838 103.011 16.7442 104.023 16.2228C105.036 15.7001 106.239 15.4385 107.631 15.4385C109.56 15.4385 111.079 15.9176 112.187 16.8748C113.295 17.8306 113.943 19.1315 114.133 20.7767H110.241C109.957 19.3539 109.07 18.6419 107.582 18.6419C106.696 18.6419 105.996 18.9189 105.481 19.4728C104.968 20.0255 104.712 20.879 104.712 22.0341C104.712 23.1897 104.968 24.0439 105.481 24.5978C105.996 25.1517 106.696 25.4287 107.582 25.4287C109.07 25.4287 109.965 24.7167 110.266 23.2914H114.155C113.965 24.9373 113.317 26.2387 112.209 27.1958C111.103 28.1535 109.577 28.6321 107.631 28.6321C106.239 28.6321 105.036 28.3674 104.023 27.838C103.011 27.3073 102.236 26.5672 101.697 25.6174C101.159 24.6683 100.891 23.5531 100.891 22.2718Z" fill="white"/>
<path d="M124.265 15.4387C125.579 15.4387 126.67 15.9136 127.54 16.8627C128.41 17.8125 128.846 19.22 128.846 21.0858V28.3235H125.049V21.6324C125.049 20.7451 124.899 20.049 124.598 19.5441C124.298 19.038 123.712 18.7843 122.841 18.7843C122.067 18.7843 121.433 19.0613 120.942 19.6152C120.451 20.1691 120.206 21.0392 120.206 22.2255V28.3235H116.41V11H120.206V18.2132C120.603 17.2806 121.161 16.5852 121.88 16.1275C122.601 15.6685 123.396 15.4387 124.265 15.4387Z" fill="white"/>
<path d="M141.4 22.3431L146.099 11H151.106V28.3235H147.239V16.8382L142.422 28.3235H140.334L135.54 16.7672V28.3235H131.672V11H136.726L141.4 22.3431Z" fill="#C2FF6A"/>
<path d="M166.697 21.2743C166.697 21.876 166.666 22.406 166.604 22.8649H157.136C157.245 23.8453 157.541 24.5537 158.023 24.9899C158.506 25.425 159.151 25.6419 159.959 25.6419C160.75 25.6419 161.335 25.4998 161.714 25.2154C162.095 24.9299 162.371 24.5653 162.545 24.1223H166.484C166.357 24.9134 166.045 25.6535 165.547 26.3429C165.049 27.031 164.356 27.5849 163.469 28.0047C162.583 28.4225 161.476 28.6321 160.148 28.6321C158.756 28.6321 157.557 28.3674 156.552 27.838C155.549 27.3073 154.778 26.5672 154.239 25.6174C153.701 24.6683 153.432 23.5531 153.432 22.2718V21.7963C153.432 20.5157 153.701 19.3968 154.239 18.4409C154.778 17.4838 155.553 16.7442 156.564 16.2228C157.577 15.7001 158.795 15.4385 160.219 15.4385C161.563 15.4385 162.718 15.6879 163.682 16.186C164.648 16.6848 165.391 17.3723 165.913 18.2498C166.435 19.1272 166.697 20.1358 166.697 21.2743ZM160.123 18.3331C159.301 18.3331 158.637 18.5267 158.131 18.914C157.624 19.3012 157.3 19.9225 157.158 20.7767H162.9C162.805 19.9385 162.52 19.3221 162.045 18.9262C161.571 18.531 160.93 18.3331 160.123 18.3331Z" fill="#C2FF6A"/>
<mask id="mask0_221_357" style="mask-type:luminance" maskUnits="userSpaceOnUse" x="123" y="31" width="51" height="4">
<path d="M123.72 31.377H173.916V34.5571H123.72V31.377Z" fill="white"/>
</mask>
<g mask="url(#mask0_221_357)">
<path d="M173.602 32.5553C171.848 31.7354 169.52 31.8635 167.607 31.7618C165.537 31.6509 163.467 31.5651 161.396 31.5038C157.191 31.38 152.983 31.3898 148.779 31.4952C144.594 31.6006 140.42 31.8139 136.249 32.1588C134.135 32.3335 132.023 32.5234 129.915 32.7501C127.963 32.9603 125.919 33.0589 124.038 33.6319C124.04 33.6355 124.043 33.6392 124.045 33.6435C123.687 33.7887 123.578 34.2599 124.108 34.3647C126.062 34.7526 128.369 34.2311 130.351 34.0926C132.374 33.9505 134.398 33.8304 136.425 33.7354C140.613 33.5393 144.808 33.4143 149.001 33.3831C153.011 33.3531 157.023 33.4186 161.031 33.5485C163.027 33.6129 165.022 33.7005 167.016 33.8108C169.005 33.9205 171.135 34.2397 173.096 33.8022C173.096 33.7961 173.095 33.7906 173.094 33.7844C173.724 33.592 174.284 32.8745 173.602 32.5553Z" fill="#C2FF6A"/>
</g>
<path d="M167.328 35.6553C166.527 34.7901 165.589 34.7368 164.447 34.6124C163.201 34.4752 161.945 34.3949 160.693 34.3134C158.065 34.1412 155.429 34.083 152.795 34.0328C150.268 33.9843 147.722 34.0248 145.197 34.1406C142.402 34.2674 139.564 34.2687 136.787 34.6038C136.293 34.6633 136.527 35.1994 136.923 35.2196C139.529 35.3514 142.148 35.2233 144.758 35.3636C147.293 35.5003 149.83 35.6051 152.366 35.7558C154.865 35.9053 157.359 36.1167 159.853 36.333C161.126 36.4433 162.398 36.5714 163.67 36.6786C164.937 36.7858 165.771 36.716 166.974 36.3477C167.271 36.2564 167.61 35.9605 167.328 35.6553Z" fill="#C2FF6A"/>
<g filter="url(#filter0_i_221_357)">
<path d="M29.4148 29.4818C28.5883 30.3161 28.5951 31.6611 29.4283 32.4866C30.2617 33.3131 31.6067 33.3063 32.4331 32.4729C37.374 27.4862 37.338 19.4105 32.351 14.4697C27.3643 9.52882 19.2887 9.56594 14.3478 14.5518C11.8773 17.0454 10.6512 20.3101 10.6661 23.5708C10.6808 26.8307 11.9369 30.0855 14.4299 32.5561C15.2631 33.3825 16.6081 33.3755 17.4345 32.5423C18.2601 31.7091 18.2542 30.3639 17.421 29.5375C14.0995 26.2455 14.0753 20.8652 17.3662 17.5437C20.6581 14.2225 26.0388 14.1969 29.3611 17.4891C32.6814 20.78 32.7067 26.1595 29.4148 29.4818Z" fill="#C2FF6A"/>
<mask id="mask1_221_357" style="mask-type:luminance" maskUnits="userSpaceOnUse" x="0" y="0" width="47" height="44">
<path d="M0 0.104004H46.7873V43.2234H0V0.104004Z" fill="white"/>
</mask>
<g mask="url(#mask1_221_357)">
<path d="M14.4658 43.1921C17.3037 43.1794 19.9666 42.0617 21.9642 40.0466C22.7886 39.2143 24.1367 39.2084 24.969 40.0329C29.1293 44.1552 35.8698 44.1239 39.9921 39.9634C49.0628 30.8094 48.9956 15.9809 39.8405 6.90987C35.4055 2.51593 29.526 0.11088 23.283 0.140405C17.0399 0.168525 11.1818 2.62644 6.78784 7.06116C2.25246 11.6387 0.00177766 17.6338 0.0290535 23.619C0.0563294 29.6039 2.36184 35.5785 6.93912 40.1138C8.95444 42.1126 11.628 43.2047 14.4658 43.1921ZM9.93046 37.0963C2.44086 29.6753 2.38518 17.5429 9.80617 10.0525C13.4012 6.42425 18.1945 4.41315 23.3024 4.38953C28.4105 4.36619 33.2215 6.33343 36.8503 9.92821C44.3399 17.3495 44.3956 29.4819 36.9746 36.9723C34.5001 39.4693 30.4559 39.4879 27.9601 37.0134C25.4642 34.54 21.4201 34.5586 18.9458 37.0544C17.7471 38.2639 16.1491 38.9339 14.4464 38.9418C12.7438 38.9505 11.1396 38.2951 9.93046 37.0963Z" fill="#C2FF6A"/>
</g>
<path d="M19.938 23.2037C19.938 23.0906 19.9436 22.9779 19.9546 22.8654C19.9658 22.7529 19.9824 22.641 20.0044 22.5302C20.0263 22.4194 20.0538 22.3098 20.0867 22.2015C20.1194 22.0935 20.1576 21.987 20.2009 21.8826C20.2442 21.7783 20.2923 21.676 20.3457 21.5764C20.3989 21.4766 20.4571 21.3799 20.5198 21.2859C20.5828 21.1917 20.65 21.1012 20.7217 21.0137C20.7934 20.9263 20.8693 20.8425 20.9492 20.7626C21.029 20.6828 21.1128 20.6069 21.2003 20.5352C21.2874 20.4634 21.3783 20.3962 21.4722 20.3333C21.5664 20.2705 21.6631 20.2123 21.7629 20.1592C21.8625 20.1058 21.9646 20.0577 22.0692 20.0144C22.1735 19.9711 22.2798 19.9331 22.388 19.9002C22.4963 19.8673 22.606 19.84 22.7167 19.8178C22.8275 19.7959 22.9395 19.7793 23.0519 19.7681C23.1644 19.7571 23.2772 19.7515 23.3902 19.7515C23.5032 19.7515 23.616 19.7571 23.7285 19.7681C23.8412 19.7793 23.9529 19.7959 24.0637 19.8178C24.1745 19.84 24.2841 19.8673 24.3924 19.9002C24.5006 19.9331 24.6069 19.9711 24.7113 20.0144C24.8159 20.0577 24.9179 20.1058 25.0175 20.1592C25.1173 20.2123 25.214 20.2705 25.3082 20.3333C25.4022 20.3962 25.493 20.4634 25.5801 20.5352C25.6676 20.6069 25.7514 20.6828 25.8313 20.7626C25.9111 20.8425 25.987 20.9263 26.0587 21.0137C26.1304 21.1012 26.1977 21.1917 26.2606 21.2859C26.3233 21.3799 26.3816 21.4766 26.4347 21.5764C26.4881 21.676 26.5365 21.7783 26.5795 21.8826C26.6228 21.987 26.6611 22.0935 26.6937 22.2015C26.7266 22.3098 26.7541 22.4194 26.7761 22.5302C26.798 22.641 26.8146 22.7529 26.8258 22.8654C26.8368 22.9779 26.8424 23.0906 26.8424 23.2037C26.8424 23.3167 26.8368 23.4295 26.8258 23.5422C26.8146 23.6547 26.798 23.7664 26.7761 23.8771C26.7541 23.9882 26.7266 24.0976 26.6937 24.2059C26.6611 24.3141 26.6228 24.4204 26.5795 24.5247C26.5365 24.6293 26.4881 24.7314 26.4347 24.831C26.3816 24.9308 26.3233 25.0278 26.2606 25.1217C26.1977 25.2156 26.1304 25.3065 26.0587 25.3939C25.987 25.4811 25.9111 25.5649 25.8313 25.6447C25.7514 25.7249 25.6676 25.8005 25.5801 25.8722C25.493 25.9439 25.4022 26.0114 25.3082 26.0741C25.214 26.1368 25.1173 26.195 25.0175 26.2482C24.9179 26.3016 24.8159 26.35 24.7113 26.3933C24.6069 26.4363 24.5006 26.4745 24.3924 26.5072C24.2841 26.5401 24.1745 26.5676 24.0637 26.5895C23.9529 26.6118 23.8412 26.6283 23.7285 26.6393C23.616 26.6503 23.5032 26.6559 23.3902 26.6559C23.2772 26.6559 23.1644 26.6503 23.0519 26.6393C22.9395 26.6283 22.8275 26.6118 22.7167 26.5895C22.606 26.5676 22.4963 26.5401 22.388 26.5072C22.2798 26.4745 22.1735 26.4363 22.0692 26.3933C21.9646 26.35 21.8625 26.3016 21.7629 26.2482C21.6631 26.195 21.5664 26.1368 21.4722 26.0741C21.3783 26.0114 21.2874 25.9439 21.2003 25.8722C21.1128 25.8005 21.029 25.7249 20.9492 25.6447C20.8693 25.5649 20.7934 25.4811 20.7217 25.3939C20.65 25.3065 20.5828 25.2156 20.5198 25.1217C20.4571 25.0278 20.3989 24.9308 20.3457 24.831C20.2923 24.7314 20.2442 24.6293 20.2009 24.5247C20.1576 24.4204 20.1194 24.3141 20.0867 24.2059C20.0538 24.0976 20.0263 23.9882 20.0044 23.8771C19.9824 23.7664 19.9658 23.6547 19.9546 23.5422C19.9436 23.4295 19.938 23.3167 19.938 23.2037Z" fill="#C2FF6A"/>
</g>
<defs>
<filter id="filter0_i_221_357" x="0.0288086" y="0.140137" width="46.7227" height="43.8486" filterUnits="userSpaceOnUse" color-interpolation-filters="sRGB">
<feFlood flood-opacity="0" result="BackgroundImageFix"/>
<feBlend mode="normal" in="SourceGraphic" in2="BackgroundImageFix" result="shape"/>
<feColorMatrix in="SourceAlpha" type="matrix" values="0 0 0 0 0 0 0 0 0 0 0 0 0 0 0 0 0 0 127 0" result="hardAlpha"/>
<feOffset dy="0.79638"/>
<feGaussianBlur stdDeviation="0.39819"/>
<feComposite in2="hardAlpha" operator="arithmetic" k2="-1" k3="1"/>
<feColorMatrix type="matrix" values="0 0 0 0 0 0 0 0 0 0 0 0 0 0 0 0 0 0 0.4 0"/>
<feBlend mode="normal" in2="shape" result="effect1_innerShadow_221_357"/>
</filter>
</defs>
</svg>
